<svg xmlns="http://www.w3.org/2000/svg" xmlns:xlink="http://www.w3.org/1999/xlink" viewBox="0 0 224 224"><defs><style>.cls-1{fill:url(#Dégradé_sans_nom_22);}.cls-2{fill:none;stroke:#000;stroke-linecap:round;stroke-linejoin:round;stroke-width:3px;}</style><linearGradient id="Dégradé_sans_nom_22" y1="112" x2="224" y2="112" gradientUnits="userSpaceOnUse"><stop offset="0" stop-color="#f29e19"/><stop offset="1" stop-color="#de1e7e"/></linearGradient></defs><title>architecture-et-expertise-technique</title><g id="Calque_1" data-name="Calque 1"><rect class="cls-1" width="224" height="224"/></g><g id="Calque_2" data-name="Calque 2"><polygon class="cls-2" points="45.88 178.28 178.36 178.28 178.36 46.47 66.36 157.91 45.88 178.28"/><line class="cls-2" x1="76.57" y1="169.15" x2="67.36" y2="158.91"/><line class="cls-2" x1="79.98" y1="158.91" x2="73.67" y2="152.63"/><line class="cls-2" x1="89.17" y1="155.77" x2="79.98" y2="146.35"/><line class="cls-2" x1="92.57" y1="146.35" x2="86.55" y2="139.81"/><line class="cls-2" x1="102.28" y1="143.08" x2="93.12" y2="133.27"/><line class="cls-2" x1="105.34" y1="133.27" x2="99.52" y2="126.91"/><line class="cls-2" x1="115.55" y1="130.09" x2="105.92" y2="120.54"/><line class="cls-2" x1="118.24" y1="120.54" x2="112.49" y2="114"/><line class="cls-2" x1="128.15" y1="117.27" x2="118.89" y2="107.63"/><line class="cls-2" x1="131.55" y1="107.63" x2="125.29" y2="101.27"/><line class="cls-2" x1="141.09" y1="104.45" x2="131.55" y2="95.04"/><line class="cls-2" x1="144.15" y1="95.04" x2="138" y2="88.62"/><line class="cls-2" x1="154.53" y1="91.83" x2="144.91" y2="81.74"/><line class="cls-2" x1="157.43" y1="81.74" x2="151.23" y2="75.46"/><line class="cls-2" x1="166.13" y1="77.6" x2="157.43" y2="69.29"/><polygon class="cls-2" points="102.26 155.93 155.84 155.93 155.84 102.62 110.54 147.69 102.26 155.93"/><line class="cls-2" x1="166.13" y1="92.4" x2="178.36" y2="92.4"/><line class="cls-2" x1="170.38" y1="101.27" x2="178.36" y2="101.27"/><line class="cls-2" x1="166.13" y1="110.79" x2="178.36" y2="110.79"/><line class="cls-2" x1="170.38" y1="119.81" x2="178.36" y2="119.81"/><line class="cls-2" x1="166.13" y1="129" x2="178.36" y2="129"/><line class="cls-2" x1="170.38" y1="138.18" x2="178.36" y2="138.18"/><line class="cls-2" x1="166.13" y1="147.21" x2="178.36" y2="147.21"/><line class="cls-2" x1="170.89" y1="155.93" x2="178.36" y2="155.93"/><line class="cls-2" x1="166.13" y1="165.6" x2="178.36" y2="165.6"/><path class="cls-2" d="M53.28,121.51l63-62,6.27-6.16,1-1S132,43.72,138,49.51s.89,12.77-2.51,16.17l-7.07,7L64.85,136.15l-19,6.13Z"/><line class="cls-2" x1="116.25" y1="59.55" x2="128.42" y2="72.73"/><line class="cls-2" x1="122.52" y1="53.39" x2="135.49" y2="65.68"/><polyline class="cls-2" points="64.85 135.15 64.6 122.3 122.34 66.14"/><line class="cls-2" x1="64.6" y1="122.3" x2="52.94" y2="122.45"/><path class="cls-2" d="M49.41,132.37s6.36-.63,7,6.51"/></g></svg>