<svg xmlns="http://www.w3.org/2000/svg" xmlns:xlink="http://www.w3.org/1999/xlink" viewBox="0 0 224 224"><defs><style>.cls-1{fill:#1e1e1e;}.cls-2,.cls-3,.cls-4,.cls-5{fill:none;stroke-linecap:square;stroke-linejoin:round;stroke-width:5px;}.cls-2{stroke:url(#Dégradé_sans_nom_19);}.cls-3{stroke:url(#Dégradé_sans_nom_57);}.cls-4{stroke:#f29e19;}.cls-5{stroke:url(#Dégradé_sans_nom_57-2);}</style><linearGradient id="Dégradé_sans_nom_19" x1="25.94" y1="173.09" x2="122.79" y2="117.18" gradientUnits="userSpaceOnUse"><stop offset="0.41" stop-color="#f29e19"/><stop offset="0.93" stop-color="#e96248"/></linearGradient><linearGradient id="Dégradé_sans_nom_57" x1="35.1" y1="107.3" x2="191.88" y2="107.3" gradientUnits="userSpaceOnUse"><stop offset="0" stop-color="#f29e19"/><stop offset="1" stop-color="#de1e7e"/></linearGradient><linearGradient id="Dégradé_sans_nom_57-2" x1="115.61" y1="114.45" x2="115.61" y2="114.45" xlink:href="#Dégradé_sans_nom_57"/></defs><title>assistance-technique</title><g id="Calque_1" data-name="Calque 1"><rect class="cls-1" width="224" height="224"/></g><g id="Calque_2" data-name="Calque 2"><path class="cls-2" d="M83.09,116,33.32,166.58s-7,28.4,20.83,21.1l51.12-49.5s-3-10.82,9.19-8.92l7.58-8.39L100.4,99.23l-8.12,8.66S93.91,120.33,83.09,116Z" transform="translate(0 0)"/><path class="cls-3" d="M89.87,104.46,68.39,84.81c-12.17,7.81-19.7,1.44-21.7-.67q-.73-.77-1.53-1.47c-15-13.38-3.07-23.76-3.07-23.76l8.4,6.41c1.33,1,3,1.08,4.64,1.35,5.71.94,12.94-1.11,12.06-10.25a19.1,19.1,0,0,0-4.41-9.51l-4.73-5s7.08-8.17,17.65-3.74a8.37,8.37,0,0,1,2.39,1.54l6.14,5.27A15.05,15.05,0,0,1,88,62a22.21,22.21,0,0,1-4.08,5.4l31.24,29.8-8.39,8.38L164.5,47.84V40.27l17.31-8.92,7.57,8.11-7.57,17h-8.65l-57.55,58,7.1-7.15L151,134.4c4.69-4.32,11.72-4.08,15.59-3.53A7.48,7.48,0,0,1,171,133.2l9.59,10.42a4.9,4.9,0,0,1,.69.95c5.92,10.74-2.73,18.23-2.73,18.23l-7-6.56a9.28,9.28,0,0,0-5.46-2.49c-9.08-.85-11.56,6.25-12.22,10.89a8.36,8.36,0,0,0,1.64,6.27l6,7.84s-10.81,12.44-24.61-4.05c0,0-11.63-9.2-2.43-23.53l-21-21.37" transform="translate(0 0)"/><line class="cls-4" x1="43.87" y1="169.02" x2="82.41" y2="131.15"/><line class="cls-4" x1="51.98" y1="177.27" x2="90.93" y2="138.99"/><path class="cls-5" d="M115.61,114.45" transform="translate(0 0)"/></g></svg>