<svg xmlns="http://www.w3.org/2000/svg" xmlns:xlink="http://www.w3.org/1999/xlink" viewBox="0 0 224 224"><defs><style>.cls-1{fill:#1e1e1e;}.cls-10,.cls-11,.cls-2,.cls-3,.cls-4,.cls-5,.cls-6,.cls-7,.cls-8,.cls-9{fill:none;stroke-linecap:round;stroke-linejoin:round;stroke-width:4px;}.cls-2{stroke:url(#Dégradé_sans_nom_58);}.cls-3{stroke:url(#Dégradé_sans_nom_58-2);}.cls-4{stroke:url(#Dégradé_sans_nom_116);}.cls-5{stroke:url(#Dégradé_sans_nom_118);}.cls-6{stroke:url(#Dégradé_sans_nom_124);}.cls-7{stroke:url(#Dégradé_sans_nom_134);}.cls-8{stroke:url(#Dégradé_sans_nom_63);}.cls-9{stroke:url(#Dégradé_sans_nom_127);}.cls-10{stroke:url(#Dégradé_sans_nom_122);}.cls-11{stroke:url(#Dégradé_sans_nom_133);}.cls-12{fill:url(#Dégradé_sans_nom_101);}.cls-13{fill:url(#Dégradé_sans_nom_139);}.cls-14{fill:url(#Dégradé_sans_nom_75);}</style><linearGradient id="Dégradé_sans_nom_58" x1="35.36" y1="101.7" x2="188.21" y2="101.7" gradientUnits="userSpaceOnUse"><stop offset="0" stop-color="#f29e19"/><stop offset="1" stop-color="#de1e7e"/></linearGradient><linearGradient id="Dégradé_sans_nom_58-2" x1="35.36" y1="138.85" x2="188.21" y2="138.85" xlink:href="#Dégradé_sans_nom_58"/><linearGradient id="Dégradé_sans_nom_116" x1="80.55" y1="165.02" x2="143.79" y2="165.02" gradientUnits="userSpaceOnUse"><stop offset="0" stop-color="#eb703d"/><stop offset="1" stop-color="#e54d59"/></linearGradient><linearGradient id="Dégradé_sans_nom_118" x1="92.04" y1="166.81" x2="132.55" y2="166.81" gradientUnits="userSpaceOnUse"><stop offset="0" stop-color="#ea6a41"/><stop offset="1" stop-color="#e65255"/></linearGradient><linearGradient id="Dégradé_sans_nom_124" x1="78.35" y1="88.09" x2="109.57" y2="88.09" gradientUnits="userSpaceOnUse"><stop offset="0" stop-color="#eb723c"/><stop offset="1" stop-color="#e7594f"/></linearGradient><linearGradient id="Dégradé_sans_nom_134" x1="97.13" y1="114.43" x2="137.2" y2="114.43" gradientUnits="userSpaceOnUse"><stop offset="0.29" stop-color="#ea6b41"/><stop offset="1" stop-color="#ec3d62"/></linearGradient><linearGradient id="Dégradé_sans_nom_63" x1="110" y1="80.04" x2="120.5" y2="80.04" gradientUnits="userSpaceOnUse"><stop offset="0" stop-color="#f29e19"/><stop offset="0" stop-color="#e7594f"/></linearGradient><linearGradient id="Dégradé_sans_nom_127" x1="100.64" y1="68.26" x2="114" y2="68.26" gradientUnits="userSpaceOnUse"><stop offset="0.34" stop-color="#e96844"/><stop offset="1" stop-color="#e7594f"/></linearGradient><linearGradient id="Dégradé_sans_nom_122" x1="84.94" y1="67.73" x2="98.3" y2="67.73" gradientUnits="userSpaceOnUse"><stop offset="0" stop-color="#eb733b"/><stop offset="1" stop-color="#e96646"/></linearGradient><linearGradient id="Dégradé_sans_nom_133" x1="124.18" y1="93" x2="145.45" y2="93" gradientUnits="userSpaceOnUse"><stop offset="0" stop-color="#f64e52"/><stop offset="1" stop-color="#e02b74"/></linearGradient><linearGradient id="Dégradé_sans_nom_101" x1="110.02" y1="99.63" x2="112.15" y2="95.94" gradientUnits="userSpaceOnUse"><stop offset="0" stop-color="#e7594f"/><stop offset="1" stop-color="#e7594f"/></linearGradient><linearGradient id="Dégradé_sans_nom_139" x1="132.37" y1="93" x2="137.26" y2="93" gradientUnits="userSpaceOnUse"><stop offset="0" stop-color="#f34a56"/><stop offset="1" stop-color="#e22e71"/></linearGradient><linearGradient id="Dégradé_sans_nom_75" x1="107.06" y1="146.98" x2="117.15" y2="146.98" gradientUnits="userSpaceOnUse"><stop offset="0" stop-color="#e85d4c"/><stop offset="1" stop-color="#e85c4d"/></linearGradient></defs><title>audit</title><g id="Calque_1" data-name="Calque 1"><rect class="cls-1" width="224" height="224"/></g><g id="Calque_2" data-name="Calque 2"><path class="cls-2" d="M178.3,155.06h-133a7.92,7.92,0,0,1-7.92-7.91V56.26a7.92,7.92,0,0,1,7.92-7.92h133a7.91,7.91,0,0,1,7.91,7.92v90.89A7.91,7.91,0,0,1,178.3,155.06Z" transform="translate(0 0)"/><polyline class="cls-3" points="119.49 138.98 37.36 138.98 186.21 138.72"/><polyline class="cls-4" points="96.34 155.06 94.04 166.81 82.55 166.81 82.55 174.98 141.79 174.98 141.79 166.81 130.55 166.81 126.85 155.06"/><polyline class="cls-5" points="130.55 166.81 102.47 166.81 94.04 166.81"/><path class="cls-6" d="M86.81,68.09s-8.17.34-6.13,12.76,12.83,25,18.45,27.22c0,0,1.47.78,8.44-5.52" transform="translate(0 0)"/><path class="cls-7" d="M135.12,102.72s.45,9.71-.82,12.26-4.09,10.89-16.51,11.15-16.38-5.81-18.66-18.06" transform="translate(0 0)"/><path class="cls-8" d="M113.62,92s6.29-15,4.59-18.47S112,68.09,112,68.09" transform="translate(0 0)"/><circle class="cls-9" cx="107.32" cy="68.26" r="4.68"/><circle class="cls-10" cx="91.62" cy="67.73" r="4.68"/><circle class="cls-11" cx="134.81" cy="93" r="8.63"/><circle class="cls-12" cx="111.09" cy="97.79" r="2.13"/><circle class="cls-13" cx="134.81" cy="93" r="2.45"/><ellipse class="cls-14" cx="112.11" cy="146.98" rx="5.04" ry="2.72"/></g></svg>