<svg xmlns="http://www.w3.org/2000/svg" xmlns:xlink="http://www.w3.org/1999/xlink" viewBox="0 0 224 224"><defs><style>.cls-1{fill:url(#Dégradé_sans_nom_22);}.cls-2{fill:none;stroke:#000;stroke-linecap:round;stroke-linejoin:round;stroke-width:4px;}</style><linearGradient id="Dégradé_sans_nom_22" y1="112" x2="224" y2="112" gradientUnits="userSpaceOnUse"><stop offset="0" stop-color="#f29e19"/><stop offset="1" stop-color="#de1e7e"/></linearGradient></defs><title>developpement-application-web-sur-mesure</title><g id="Calque_1" data-name="Calque 1"><rect class="cls-1" width="224" height="224"/></g><g id="Calque_3" data-name="Calque 3"><path class="cls-2" d="M126,144.64h-82a6.76,6.76,0,0,1-6.8-6.72V60.64a6.76,6.76,0,0,1,6.8-6.73H150.47a6.77,6.77,0,0,1,6.81,6.73v52.41"/><polyline class="cls-2" points="84.77 98.68 66.04 109.57 84.77 120.47"/><polyline class="cls-2" points="109.43 120.47 128.16 109.57 109.43 98.68"/><line class="cls-2" x1="106.89" y1="88.13" x2="87.15" y2="130.68"/><line class="cls-2" x1="37.11" y1="74.17" x2="157.28" y2="73.83"/><line class="cls-2" x1="60.26" y1="53.91" x2="60.26" y2="74.1"/><circle class="cls-2" cx="157.24" cy="144.22" r="13.67"/><polygon class="cls-2" points="133.11 125.57 139.49 119.28 143.19 122.43 151.75 119.28 151.75 114 162.34 114 162.34 118.13 170.25 122.72 174.85 119.79 180.98 126.3 178.55 129.62 182 138.68 186.6 138.68 186.6 148.64 182.38 148.64 178.55 156.94 181.11 161.66 174.72 168.3 170.51 164.85 162.6 168.3 162.6 173.79 151.87 173.79 152.13 168.94 143.83 165.11 139.49 168.3 132.34 160.25 135.91 156.81 131.7 149.15 126.85 149.02 126.85 139.06 131.7 138.94 135.79 130.25 135.79 129.62 133.11 125.57"/><circle class="cls-2" cx="114.46" cy="63.54" r="3.78"/><circle class="cls-2" cx="127.12" cy="63.54" r="3.78"/><circle class="cls-2" cx="139.78" cy="63.54" r="3.78"/></g></svg>