<svg xmlns="http://www.w3.org/2000/svg" xmlns:xlink="http://www.w3.org/1999/xlink" viewBox="0 0 220 220"><defs><style>.cls-1{fill:url(#Dégradé_sans_nom_24);}.cls-2,.cls-3,.cls-4{fill:none;stroke:#000;stroke-width:3px;}.cls-2{stroke-miterlimit:10;}.cls-3{stroke-linecap:square;stroke-linejoin:round;}.cls-4{stroke-linejoin:bevel;}</style><linearGradient id="Dégradé_sans_nom_24" x1="37.84" y1="37.84" x2="186.25" y2="186.25" gradientUnits="userSpaceOnUse"><stop offset="0" stop-color="#f29e19"/><stop offset="1" stop-color="#de1e7e"/></linearGradient></defs><title>ethique</title><g id="Calque_1" data-name="Calque 1"><rect class="cls-1" x="34.22" y="34.22" width="155.56" height="155.56" transform="translate(-48.39 110) rotate(-45)"/></g><g id="Calque_3" data-name="Calque 3"><path class="cls-2" d="M115.82,147.34a26.38,26.38,0,0,1-6.81.89,26.09,26.09,0,1,1,26.08-26.08,35.82,35.82,0,0,1-1,7.14" transform="translate(-2 -2)"/><line class="cls-2" x1="107.01" y1="94.06" x2="107.01" y2="60.42"/><line class="cls-3" x1="77.01" y1="60.42" x2="138.21" y2="60.42"/><circle class="cls-2" cx="107.07" cy="56.71" r="3.71"/><polyline class="cls-4" points="131.01 72.69 137.81 60.42 143.53 72.69"/><polyline class="cls-4" points="70.7 72.69 77.5 60.42 83.22 72.69"/><path class="cls-2" d="M90.68,75.7a11.67,11.67,0,0,1-23.34,0Z" transform="translate(-2 -2)"/><path class="cls-2" d="M150.94,75.7a11.67,11.67,0,1,1-23.34,0Z" transform="translate(-2 -2)"/><rect class="cls-3" x="114.83" y="128.2" width="29.51" height="37.28"/><path class="cls-3" d="M146.34,166.76c6.56,4.42,10.18-.79,9.52,0V150.58h-9.52Z" transform="translate(-2 -2)"/><rect class="cls-2" x="120.33" y="135.44" width="7.85" height="7.85" rx="2.52"/><line class="cls-2" x1="133.87" y1="135.44" x2="140.04" y2="135.44"/><line class="cls-2" x1="133.87" y1="143.28" x2="140.04" y2="143.28"/><line class="cls-2" x1="118.72" y1="150.32" x2="140.04" y2="150.32"/><line class="cls-2" x1="118.72" y1="158.24" x2="140.04" y2="158.24"/><path class="cls-2" d="M96.79,99.1a13.67,13.67,0,0,0,3.62,1.91c4,1.49,11.08,2.63,20.82-1.91" transform="translate(-2 -2)"/><path class="cls-2" d="M101.53,147.14s-15.26-22.2-1.12-46.13" transform="translate(-2 -2)"/><path class="cls-2" d="M122.81,128.6A41.94,41.94,0,0,0,117.22,101" transform="translate(-2 -2)"/><polyline class="cls-2" points="107.01 100.3 107.01 140.8 114.83 140.8"/><line class="cls-2" x1="97.13" y1="140.8" x2="107.01" y2="140.8"/><path class="cls-2" d="M85,132.31s18.31,2.45,31.86.7" transform="translate(-2 -2)"/><path class="cls-2" d="M83.16,118.64s20.5,8.7,51.7,0" transform="translate(-2 -2)"/><path class="cls-2" d="M87.38,107.56s22.33,8.08,43.26,0" transform="translate(-2 -2)"/></g></svg>