<svg xmlns="http://www.w3.org/2000/svg" xmlns:xlink="http://www.w3.org/1999/xlink" viewBox="0 0 220 220"><defs><style>.cls-1{fill:url(#Dégradé_sans_nom_24);}.cls-2{fill:#fff;}.cls-2,.cls-3{stroke:#000;stroke-linecap:round;stroke-linejoin:round;stroke-width:3px;}.cls-3{fill:none;}</style><linearGradient id="Dégradé_sans_nom_24" x1="37.84" y1="37.84" x2="186.25" y2="186.25" gradientUnits="userSpaceOnUse"><stop offset="0" stop-color="#f29e19"/><stop offset="1" stop-color="#de1e7e"/></linearGradient></defs><title>humain</title><g id="Calque_1" data-name="Calque 1"><rect class="cls-1" x="34.22" y="34.22" width="155.56" height="155.56" transform="translate(-48.39 110) rotate(-45)"/></g><g id="Calque_2" data-name="Calque 2"><line class="cls-2" x1="73.15" y1="57.04" x2="82.09" y2="65.98"/><line class="cls-2" x1="109.34" y1="56.72" x2="109.34" y2="67.77"/><line class="cls-2" x1="145.15" y1="57.04" x2="136.6" y2="65.98"/><path class="cls-3" d="M163.52,139.4l-25,25a3.42,3.42,0,0,1-4.83,0l-4.92-4.92a3.42,3.42,0,0,1,0-4.83l1-1,24.05-24a3.42,3.42,0,0,1,4.84,0l4.91,4.91A3.42,3.42,0,0,1,163.52,139.4Z" transform="translate(-2 -2)"/><path class="cls-3" d="M77.77,157.44l7,7a3.42,3.42,0,0,0,4.83,0l4.92-4.92a3.42,3.42,0,0,0,0-4.83l-25-25a3.4,3.4,0,0,0-4.83,0l-4.92,4.91a3.43,3.43,0,0,0,0,4.84l5.54,5.53" transform="translate(-2 -2)"/><circle cx="69.23" cy="150.87" r="2.47"/><circle cx="128.36" cy="129.28" r="2.47"/><polyline class="cls-3" points="127.72 151.7 116.81 140.15 121.53 135.68"/><polyline class="cls-3" points="91.52 151.7 102.77 140.02 116.81 140.15"/><polyline class="cls-3" points="151.15 128.27 139.91 117.17 136.85 120.23"/><path class="cls-3" d="M141.91,119.17l4.09-4s-.51-7.91-7.91-7.27l-3.83,3.83" transform="translate(-2 -2)"/><path class="cls-3" d="M134.26,111.77l5.87-6s-.13-7.94-7.53-7.3l-4.22,3.86" transform="translate(-2 -2)"/><path class="cls-3" d="M128.38,102.35l6.5-6s-.51-7.92-7.91-7.28l-3.83,3.83" transform="translate(-2 -2)"/><path class="cls-3" d="M122.49,93.49,129,87.18s-.51-7.92-7.92-7.28L111.34,89" transform="translate(-2 -2)"/><path class="cls-3" d="M100.6,78.28s13.5-1.09,20.49,1.62" transform="translate(-2 -2)"/><path class="cls-3" d="M92.85,86.11l13.79,13.1s7-.42,6.64-7.4c0,0-10.3-7-12.68-13.53C100.6,78.28,90.89,75.55,92.85,86.11Z" transform="translate(-2 -2)"/><path class="cls-3" d="M86.72,95l11.92,11.66s7.15.76,8-7.41L92.85,86.11S84.77,88.15,86.72,95Z" transform="translate(-2 -2)"/><path class="cls-3" d="M81.45,104.15l9.78,10.3s8.09-.51,7.41-7.83L88.17,96.37S79.49,96.23,81.45,104.15Z" transform="translate(-2 -2)"/><path class="cls-3" d="M77.11,115.13l6.8,6.55s7.24.34,7.32-7.23L84.17,107S76.19,107.21,77.11,115.13Z" transform="translate(-2 -2)"/><line class="cls-3" x1="68.54" y1="128.72" x2="79.31" y2="117.17"/></g></svg>