<svg xmlns="http://www.w3.org/2000/svg" xmlns:xlink="http://www.w3.org/1999/xlink" viewBox="0 0 220 220"><defs><style>.cls-1{fill:#1e1e1e;}.cls-2,.cls-3,.cls-4,.cls-5{fill:none;stroke-linecap:round;stroke-linejoin:round;stroke-width:3px;}.cls-2{stroke:url(#Dégradé_sans_nom_5);}.cls-3{stroke:url(#Dégradé_sans_nom_5-2);}.cls-4{stroke:url(#Dégradé_sans_nom_5-3);}.cls-5{stroke:url(#Dégradé_sans_nom_5-4);}</style><linearGradient id="Dégradé_sans_nom_5" x1="83.22" y1="138.34" x2="141.34" y2="138.34" gradientUnits="userSpaceOnUse"><stop offset="0" stop-color="#f29e19"/><stop offset="1" stop-color="#de1e7e"/></linearGradient><linearGradient id="Dégradé_sans_nom_5-2" x1="65.87" y1="113.33" x2="159.05" y2="113.33" xlink:href="#Dégradé_sans_nom_5"/><linearGradient id="Dégradé_sans_nom_5-3" x1="77.97" y1="97.83" x2="143.03" y2="97.83" xlink:href="#Dégradé_sans_nom_5"/><linearGradient id="Dégradé_sans_nom_5-4" x1="94.59" y1="101.71" x2="130.07" y2="101.71" xlink:href="#Dégradé_sans_nom_5"/></defs><title>qualite</title><g id="Calque_1" data-name="Calque 1"><rect class="cls-1" x="34.22" y="34.22" width="155.56" height="155.56" transform="translate(-48.39 110) rotate(-45)"/></g><g id="Calque_2" data-name="Calque 2"><path class="cls-2" d="M84.72,134.44l6.33-2.53,13.55,6.15c.38-.57,2.66,7.15,7.77,6.68,6.1-.55,4,1.87,7.95-6.22l13.38-6.61,6.14,2.53" transform="translate(-2 -2)"/><path class="cls-3" d="M84.72,134.44l-11,25.3s-2.17,7.41,5.51,5.79l8.22.23,6.33,5.91s4.7,3.62,6.32-1.08l12.29-25.85,12.47,26.57s4.34,2.89,6.87,0,4.52-5.24,4.52-5.24h11.56s5.79-1.08,3.26-7-11.21-24.58-11.21-24.58l7.23-6.14s2-1.45-.54-4.88l-1.63-3.25,5.6-12.84,7.05-3.43V93.78l-7.77-3.43-4.52-12.83,2.35-7-7-6.87L134.06,66,120.5,60.53l-3.43-6.87h-9.22L104.42,60,91.77,66.49l-7.41-2.17-7,6.87,2.17,6.51L73.41,91.25l-6,3.43v8.14l6.51,4.7,5.42,12.83-2.17,7Z" transform="translate(-2 -2)"/><circle class="cls-4" cx="110.5" cy="97.83" r="31.03"/><path class="cls-5" d="M104.76,104l14.78-14a9,9,0,0,1,5.29-2.5c2-.19,4,.28,3.71,3.1a6.94,6.94,0,0,1-2,4.11l-18.14,18.54a3.31,3.31,0,0,0-.45.54c-.68,1-3.88,4.73-8.38-.42-1-1.13-1.72-2-2.26-2.62a4.77,4.77,0,0,1-.49-5.63c1-1.47,2.84-2.47,6.45-.85A1.4,1.4,0,0,0,104.76,104Z" transform="translate(-2 -2)"/></g></svg>